<svg width="1399" height="435" viewBox="0 0 1399 435" fill="none" xmlns="http://www.w3.org/2000/svg">
<path d="M125.831 0C85.4977 0 48.5661 91.5001 -1 91.5001V435H1399V91.5001C1343.6 91.5001 1313.96 19.5 1256.13 19.5C1198.31 19.5 1175.47 91.5001 1119.1 91.5001C1062.73 91.5001 1027.74 0 975.744 0C923.748 0 915.487 84.5 833.849 83.5C788.95 82.95 751.932 19.5 706.899 19.5C650.52 19.5 617.789 83.5 564.151 83.5C485.914 83.5 468.906 19.5 418.368 19.5C367.83 19.5 353.738 91.5001 287.65 91.5001C218.747 91.5001 166.164 0 125.831 0Z" fill="url(#paint0_linear)"/>
<defs>
<linearGradient id="paint0_linear" x1="616.147" y1="81.5" x2="618.72" y2="1986.5" gradientUnits="userSpaceOnUse">
<stop stop-color="#2C9EDB"/>
<stop offset="0.185726" stop-color="#17C3D5"/>
<stop offset="0.421957" stop-color="#09DBD1"/>
</linearGradient>
</defs>
</svg>
