<svg width="100" height="100" viewBox="0 0 100 100" fill="none" xmlns="http://www.w3.org/2000/svg">
<rect y="-0.000366211" width="100" height="100" fill="white"/>
<path d="M22.6743 93.1358C22.1724 93.7949 22.2998 94.736 22.9589 95.2379C23.618 95.7398 24.5591 95.6124 25.061 94.9533L22.6743 93.1358ZM11.1398 61.2406L9.94639 60.3319L11.1398 61.2406ZM46.4701 64.363L45.2767 63.4542L45.2767 63.4542L46.4701 64.363ZM34.2265 30.923L33.0332 30.0143L33.0332 30.0143L34.2265 30.923ZM69.8797 33.6214L71.0731 34.5301L69.8797 33.6214ZM92.0966 4.20983C91.951 3.39429 91.1719 2.85116 90.3563 2.99673L77.0664 5.36878C76.2508 5.51434 75.7077 6.29347 75.8533 7.10901C75.9988 7.92454 76.7779 8.46767 77.5935 8.32211L89.4068 6.21361L91.5153 18.0269C91.6608 18.8425 92.44 19.3856 93.2555 19.24C94.0711 19.0945 94.6142 18.3153 94.4686 17.4998L92.0966 4.20983ZM25.061 94.9533C25.9709 93.7585 26.1276 92.3279 25.9238 90.9465C25.7226 89.5833 25.1543 88.1263 24.4234 86.667C22.9641 83.7535 20.6383 80.4186 18.4403 77.1951C16.198 73.9064 14.079 70.7208 12.8422 67.9342C11.5549 65.0338 11.5162 63.2222 12.3332 62.1494L9.94639 60.3319C8.01875 62.8632 8.78398 66.1857 10.1001 69.1512C11.4668 72.2304 13.7506 75.6424 15.9617 78.8851C18.2171 82.193 20.3951 85.3233 21.741 88.0105C22.4127 89.3516 22.8223 90.479 22.9559 91.3844C23.0868 92.2714 22.9349 92.7935 22.6743 93.1358L25.061 94.9533ZM12.3332 62.1494C13.1527 61.0731 14.8704 60.6523 17.9708 61.1655C20.9559 61.6597 24.5467 62.9062 28.3113 64.2182C31.9965 65.5026 35.8555 66.8526 39.1491 67.3978C42.3275 67.924 45.7175 67.8272 47.6635 65.2717L45.2767 63.4542C44.4571 64.5305 42.7394 64.9513 39.6391 64.4381C36.654 63.9439 33.0632 62.6974 29.2986 61.3854C25.6134 60.101 21.7543 58.751 18.4607 58.2058C15.2823 57.6796 11.8924 57.7764 9.94639 60.3319L12.3332 62.1494ZM47.6635 65.2717C49.6787 62.6253 48.8641 59.3555 47.4491 56.4533C45.9985 53.478 43.5853 50.2086 41.3211 47.0814C39.0021 43.8784 36.8275 40.8101 35.6042 38.0455C34.3696 35.2552 34.3188 33.2778 35.4199 31.8318L33.0332 30.0143C30.9054 32.8085 31.4971 36.1772 32.8608 39.2594C34.2359 42.3673 36.6156 45.6978 38.8912 48.8407C41.2216 52.0594 43.4434 55.0829 44.7526 57.768C46.0974 60.5263 46.1674 62.2845 45.2767 63.4542L47.6635 65.2717ZM35.4199 31.8318C36.2757 30.708 38.0498 30.2638 41.1784 30.7266C44.1996 31.1735 47.8312 32.3677 51.6308 33.6295C55.3517 34.8652 59.2423 36.169 62.5533 36.6844C65.7437 37.1811 69.1404 37.0682 71.0731 34.5301L68.6863 32.7126C67.8744 33.7788 66.1452 34.2075 63.0148 33.7201C60.0049 33.2515 56.3797 32.0455 52.5763 30.7824C48.8518 29.5455 44.9507 28.2519 41.6174 27.7589C38.3916 27.2818 34.9892 27.4455 33.0332 30.0143L35.4199 31.8318ZM71.0731 34.5301C73.5838 31.2331 78.7865 23.9207 83.3435 17.4591C85.626 14.2225 87.7526 11.1908 89.3085 8.9682C90.0865 7.85688 90.7219 6.94777 91.1628 6.31644C91.3832 6.00077 91.5551 5.75453 91.6719 5.58718C91.7302 5.5035 91.7749 5.43954 91.8049 5.39648C91.8199 5.37495 91.8313 5.35865 91.8389 5.34771C91.8427 5.34225 91.8456 5.33812 91.8475 5.33536C91.8485 5.33398 91.8492 5.33294 91.8497 5.33224C91.8499 5.3319 91.8501 5.33163 91.8502 5.33145C91.8504 5.33128 91.8504 5.33118 90.6199 4.47339C89.3894 3.6156 89.3893 3.61567 89.3892 3.61584C89.3891 3.61601 89.3889 3.61626 89.3887 3.6166C89.3882 3.61728 89.3875 3.6183 89.3865 3.61966C89.3846 3.62238 89.3818 3.62646 89.378 3.63188C89.3704 3.64273 89.3591 3.65896 89.3442 3.6804C89.3143 3.72329 89.2698 3.78707 89.2115 3.87057C89.095 4.03757 88.9234 4.28342 88.7032 4.59869C88.2629 5.22924 87.6281 6.13742 86.8509 7.24772C85.2963 9.4684 83.1717 12.4972 80.8918 15.7301C76.3239 22.2073 71.1565 29.4689 68.6863 32.7126L71.0731 34.5301Z" fill="url(#paint0_linear)"/>
<defs>
<linearGradient id="paint0_linear" x1="98.5601" y1="50.2119" x2="0.242165" y2="50.2119" gradientUnits="userSpaceOnUse">
<stop stop-color="#2D9CDB"/>
<stop offset="1" stop-color="#05E1CF"/>
</linearGradient>
</defs>
</svg>
