<svg width="176" height="135" viewBox="0 0 176 135" fill="none" xmlns="http://www.w3.org/2000/svg">
<path d="M85.6951 130.768C85.6951 132.89 87.415 134.61 89.5366 134.61C91.6582 134.61 93.378 132.89 93.378 130.768H85.6951ZM109 91.0732L107.064 87.755L107.064 87.755L109 91.0732ZM95.939 104.902L99.1511 107.009L99.1511 107.009L95.939 104.902ZM70.8415 73.4024C72.963 73.4024 74.6829 71.6826 74.6829 69.561C74.6829 67.4394 72.963 65.7195 70.8415 65.7195V73.4024ZM105.159 20.1341C103.037 20.1341 101.317 21.854 101.317 23.9756C101.317 26.0972 103.037 27.8171 105.159 27.8171V20.1341ZM37.0266 7.84146H56.51V0.158537H37.0266V7.84146ZM37.0266 65.7195C24.7893 65.7195 17.785 62.28 13.7255 57.4793C9.55822 52.5513 7.84146 45.4371 7.84146 36.7805H0.158537C0.158537 46.228 1.99358 55.5041 7.85888 62.4402C13.832 69.5038 23.341 73.4024 37.0266 73.4024V65.7195ZM56.51 7.84146C68.7473 7.84146 75.7516 11.281 79.8111 16.0816C83.9784 21.0097 85.6951 28.1239 85.6951 36.7805H93.378C93.378 27.3329 91.543 18.0569 85.6777 11.1207C79.7046 4.05716 70.1956 0.158537 56.51 0.158537V7.84146ZM37.0266 0.158537C23.341 0.158537 13.832 4.05716 7.85888 11.1207C1.99358 18.0569 0.158537 27.3329 0.158537 36.7805H7.84146C7.84146 28.1239 9.55821 21.0097 13.7255 16.0816C17.785 11.281 24.7893 7.84146 37.0266 7.84146V0.158537ZM85.6951 36.7805V130.768H93.378V36.7805H85.6951ZM146.561 84.1585H122.317V91.8415H146.561V84.1585ZM168.159 55.9878C168.159 64.4013 166.444 71.5133 162.998 76.4144C159.695 81.1115 154.548 84.1585 146.561 84.1585V91.8415C156.866 91.8415 164.439 87.7223 169.283 80.8333C173.983 74.1482 175.841 65.2542 175.841 55.9878H168.159ZM138.878 27.8171C151.172 27.8171 158.212 31.1894 162.28 35.8713C166.44 40.6586 168.159 47.5645 168.159 55.9878H175.841C175.841 46.7312 173.987 37.631 168.08 30.8322C162.081 23.928 152.56 20.1341 138.878 20.1341V27.8171ZM122.317 84.1585C116.537 84.1585 111.547 85.14 107.064 87.755L110.936 94.3913C113.892 92.6668 117.423 91.8415 122.317 91.8415V84.1585ZM107.064 87.755C100.082 91.828 96.5562 96.9578 92.727 102.795L99.1511 107.009C102.924 101.257 105.625 97.489 110.936 94.3913L107.064 87.755ZM92.727 102.795C88.2291 109.652 85.6951 118.174 85.6951 130.768H93.378C93.378 119.289 95.6618 112.329 99.1511 107.009L92.727 102.795ZM70.8415 65.7195H37.0266V73.4024H70.8415V65.7195ZM105.159 27.8171H122.018V20.1341H105.159V27.8171ZM122.018 27.8171H138.878V20.1341H122.018V27.8171Z" fill="url(#paint0_linear)"/>
<circle cx="29.6098" cy="36.7804" r="3.58537" fill="#2D9CDB"/>
<circle cx="47.0244" cy="36.7804" r="3.58537" fill="#2D9CDB"/>
<circle cx="64.439" cy="36.7804" r="3.58537" fill="#2D9CDB"/>
<circle cx="111.561" cy="55.7317" r="3.58537" fill="#2D9CDB"/>
<circle cx="128.976" cy="55.7317" r="3.58537" fill="#2D9CDB"/>
<circle cx="146.39" cy="55.7317" r="3.58537" fill="#2D9CDB"/>
<defs>
<linearGradient id="paint0_linear" x1="88" y1="4" x2="88" y2="137.171" gradientUnits="userSpaceOnUse">
<stop stop-color="#2D9CDB"/>
<stop offset="1" stop-color="#05E1CF"/>
</linearGradient>
</defs>
</svg>
