<svg width="25" height="25" viewBox="0 0 25 25" fill="none" xmlns="http://www.w3.org/2000/svg">
<path fill-rule="evenodd" clip-rule="evenodd" d="M15.5885 14.8489H16.4115L21.6094 20.0573L20.0573 21.6094L14.849 16.4114V15.5885L14.5677 15.2969C13.3802 16.3177 11.8385 16.9323 10.1615 16.9323C6.42188 16.9323 3.39062 13.901 3.39062 10.1614C3.39062 6.42186 6.42188 3.39061 10.1615 3.39061C13.901 3.39061 16.9323 6.42186 16.9323 10.1614C16.9323 11.8385 16.3177 13.3802 15.2969 14.5677L15.5885 14.8489ZM5.47396 10.1614C5.47396 12.7552 7.56771 14.8489 10.1615 14.8489C12.7552 14.8489 14.849 12.7552 14.849 10.1614C14.849 7.56769 12.7552 5.47394 10.1615 5.47394C7.56771 5.47394 5.47396 7.56769 5.47396 10.1614Z" fill="#262444"/>
</svg>
